# Blender v2.73 (sub 0) OBJ File: ''
# www.blender.org
o Cube
v 1.000000 0.000000 -1.000000
v 1.000000 0.000000 1.000000
v -1.000000 0.000000 1.000000
v -1.000000 0.000000 -1.000000
v 1.000000 2.000000 -1.000000
v 1.000000 2.000000 1.000000
v -1.000000 2.000000 1.000000
v -1.000000 2.000000 -1.000000
v 1.000000 0.000000 -1.000000
v 1.000000 0.000000 -1.000000
v 1.000000 0.000000 1.000000
v 1.000000 0.000000 1.000000
v -1.000000 0.000000 -1.000000
v -1.000000 0.000000 -1.000000
v 1.000000 2.000000 -1.000000
v 1.000000 2.000000 -1.000000
v -1.000000 0.000000 1.000000
v -1.000000 0.000000 1.000000
v 1.000000 2.000000 1.000000
v 1.000000 2.000000 1.000000
v -1.000000 2.000000 1.000000
v -1.000000 2.000000 1.000000
v -1.000000 2.000000 -1.000000
v -1.000000 2.000000 -1.000000
vt 1.000000 0.000000
vt 1.000000 1.000000
vt 0.000000 1.000000
vt 0.000000 0.000000
vn 0.000000 -1.000000 0.000000
vn 0.000000 1.000000 0.000000
vn 1.000000 0.000000 0.000000
vn -0.000000 -0.000000 1.000000
vn -1.000000 -0.000000 -0.000000
vn 0.000000 0.000000 -1.000000
s 1
f 2/1/1 3/2/1 4/3/1
f 23/1/2 21/2/2 19/3/2
f 5/1/3 6/2/3 11/3/3
f 20/1/4 7/2/4 17/3/4
f 22/1/5 8/2/5 13/3/5
f 16/4/6 10/1/6 14/2/6
f 1/4/1 2/1/1 4/3/1
f 15/4/2 23/1/2 19/3/2
f 9/4/3 5/1/3 11/3/3
f 12/4/4 20/1/4 17/3/4
f 18/4/5 22/1/5 13/3/5
f 24/3/6 16/4/6 14/2/6
