# Blender v2.73 (sub 0) OBJ File: 'Träd.blend'
# www.blender.org
o Icosphere.004
v -1.138152 2.080199 0.652597
v -0.981756 2.102398 0.026610
v -1.829240 2.507316 0.402632
v -1.674720 2.507317 -0.079581
v -0.940821 2.369106 0.349100
v -1.573129 2.738703 0.267865
v -1.334117 1.742419 0.205378
v -1.583722 1.792178 0.386726
v -1.552328 1.947280 -0.139021
v -1.921664 2.174762 0.267865
v -1.632965 2.102398 0.720710
v -1.575843 2.228597 -0.211391
v -1.293290 2.578549 0.658221
v -1.079806 2.607538 0.149002
v -1.306565 2.592734 -0.081637
v 0.117060 2.351558 1.221999
v 0.273456 2.373758 0.596012
v -0.574028 2.778676 0.972033
v -0.419509 2.778677 0.489821
v 0.314390 2.640466 0.918501
v -0.317917 3.010063 0.837266
v -0.078906 2.013779 0.774780
v -0.328511 2.063538 0.956128
v -0.297117 2.218640 0.430381
v -0.666453 2.446122 0.837267
v -0.377753 2.373758 1.290112
v -0.320632 2.499957 0.358011
v -0.038078 2.849909 1.227623
v 0.175406 2.878898 0.718404
v -0.051354 2.864094 0.487765
v 0.338874 2.835168 0.103240
v 0.495270 2.857368 -0.522747
v -0.352214 3.262286 -0.146725
v -0.197694 3.262287 -0.628938
v 0.536205 3.124076 -0.200257
v -0.096103 3.493673 -0.281492
v 0.142909 2.497389 -0.343979
v -0.106696 2.547148 -0.162631
v -0.075302 2.702250 -0.688377
v -0.444638 2.929732 -0.281492
v -0.155939 2.857368 0.171353
v -0.098817 2.983567 -0.760748
v 0.183737 3.333519 0.108864
v 0.397220 3.362507 -0.400354
v 0.170461 3.347704 -0.630994
v -0.594667 2.640915 0.072181
v -0.438271 2.663114 -0.553805
v -1.285755 3.068033 -0.177784
v -1.131235 3.068033 -0.659997
v -0.397336 2.929823 -0.231316
v -1.029644 3.299419 -0.312551
v -0.790632 2.303136 -0.375038
v -1.040237 2.352894 -0.193690
v -1.008843 2.507997 -0.719436
v -1.378179 2.735479 -0.312551
v -1.089480 2.663114 0.140294
v -1.032358 2.789314 -0.791806
v -0.749804 3.139266 0.077806
v -0.536321 3.168254 -0.431413
v -0.763080 3.153450 -0.662053
v 1.346877 2.793913 -0.176382
v 1.503273 2.816112 -0.802369
v 0.655790 3.221031 -0.426347
v 0.810309 3.221031 -0.908560
v 1.544208 3.082821 -0.479879
v 0.911900 3.452417 -0.561114
v 1.150912 2.456134 -0.623601
v 0.901307 2.505892 -0.442253
v 0.932701 2.660995 -0.967999
v 0.563365 2.888477 -0.561114
v 0.852064 2.816112 -0.108269
v 0.909186 2.942312 -1.040370
v 1.191740 3.292264 -0.170758
v 1.405223 3.321252 -0.679976
v 1.178464 3.306448 -0.910616
v 0.089233 1.518008 -0.198201
v -0.005523 1.518008 -0.280061
v -0.005523 -0.020873 -0.374369
v -0.005523 2.934538 -0.211863
v 0.164664 -0.020873 -0.227344
v 0.034685 2.934538 -0.177126
v 0.099658 -0.020873 0.010548
v 0.019327 2.934538 -0.120922
v -0.110704 -0.020873 0.010548
v -0.030373 2.934538 -0.120922
v -0.175709 -0.020873 -0.227344
v -0.045731 2.934538 -0.177126
v 0.053039 1.518008 -0.065748
v -0.064085 1.518008 -0.065748
v -0.100279 1.518008 -0.198201
v 0.097326 1.352901 -0.201328
v 0.058041 1.352901 -0.057562
v -0.069087 1.352901 -0.057562
v -0.005523 1.352901 -0.290179
v -0.108372 1.352901 -0.201328
v -1.363462 1.646656 0.283320
v -1.365010 1.673320 0.185577
v -1.485310 1.643276 0.289360
v -1.486991 1.672217 0.183270
v -0.108372 1.352901 -0.201328
v -0.069087 1.352901 -0.057562
v -0.100279 1.518008 -0.198201
v -0.064085 1.518008 -0.065748
v -0.761256 1.360861 0.097056
v -0.783069 1.360861 0.017229
v -0.778576 1.452538 0.018965
v -0.758479 1.452538 0.092511
v -0.295922 1.334224 -0.024185
v -0.292764 1.438482 -0.029354
v -0.320729 1.334224 -0.114966
v -0.315618 1.438482 -0.112992
v -1.216780 1.467055 0.134829
v -1.212190 1.560697 0.136602
v -1.194500 1.467055 0.216366
v -1.191663 1.560697 0.211724
v -1.404906 2.052561 0.364424
v -1.405557 2.063771 0.323332
v -1.456133 2.051140 0.366964
v -1.456839 2.063307 0.322362
v -0.091645 1.742215 -0.194865
v -0.058749 1.742215 -0.074481
v -0.005523 1.742215 -0.269267
v 0.047703 1.742215 -0.074481
v 0.080599 1.742215 -0.194865
v -0.005523 1.923597 -0.260534
v -0.084661 1.923597 -0.192167
v -0.054433 1.923597 -0.081546
v 0.043387 1.923597 -0.081546
v 0.073615 1.923597 -0.192167
v -0.031382 1.829031 0.562661
v 0.020336 1.829031 0.562661
v -0.029285 1.884004 0.493703
v 0.018239 1.884004 0.493703
v -0.267321 2.205823 0.861097
v -0.216629 2.206494 0.850865
v -0.282612 2.222509 0.775837
v -0.236032 2.223126 0.766434
v -0.245613 2.701855 0.928615
v -0.223056 2.702154 0.924061
v -0.252417 2.709280 0.890675
v -0.231690 2.709555 0.886492
v 0.818424 2.179813 -0.380206
v 0.773459 2.196688 -0.394015
v 0.767429 2.237395 -0.314445
v 0.808297 2.222058 -0.301894
v 1.014125 2.627013 -0.575927
v 0.991356 2.636449 -0.563845
v 1.019620 2.653318 -0.527271
v 1.040314 2.644742 -0.538252
v 1.044122 3.111325 -0.815667
v 1.029241 3.117492 -0.807770
v 1.047713 3.128517 -0.783867
v 1.061239 3.122912 -0.791044
v -0.486544 2.096979 -0.686088
v -0.425983 2.163222 -0.731092
v -0.329354 2.153823 -0.603657
v -0.385004 2.092952 -0.562303
v -0.766930 2.640524 -0.402377
v -0.710691 2.664385 -0.388398
v -0.696795 2.587102 -0.326485
v -0.748473 2.565177 -0.339330
v -0.886015 2.801373 -0.144624
v -0.851284 2.816108 -0.135991
v -0.842703 2.768383 -0.097756
v -0.874617 2.754843 -0.105689
vt 0.000000 0.000000
vt 1.000000 0.000000
vt 1.000000 1.000000
vt 0.000000 1.000000
vt 0.500000 1.000000
vt 0.975528 0.654508
vt 0.793893 0.095491
vt 0.024472 0.654509
vt 0.206107 0.095492
vn 0.744300 -0.647600 0.163000
vn 0.896000 -0.391400 0.210000
vn -0.368100 0.737300 0.566400
vn -0.716200 0.659100 -0.229500
vn 0.192100 0.949000 -0.249800
vn -0.198100 0.841600 -0.502500
vn 0.292300 0.940000 0.176100
vn 0.675800 0.663400 0.321100
vn 0.909700 0.255800 -0.327000
vn 0.671800 0.295000 -0.679400
vn -0.097200 0.397100 -0.912600
vn -0.887700 0.362000 -0.284500
vn -0.435900 0.415700 0.798200
vn 0.712900 0.214400 0.667600
vn 0.380200 0.048000 -0.923700
vn 0.324800 -0.210100 -0.922200
vn -0.810300 -0.010400 -0.585900
vn -0.780000 -0.216300 -0.587200
vn -0.842000 0.015500 0.539300
vn 0.137700 0.031700 0.990000
vn 0.368900 -0.677200 -0.636600
vn -0.380800 -0.880500 -0.282500
vn -0.688400 -0.683500 -0.242700
vn -0.746900 -0.538500 0.390100
vn 0.061600 -0.726800 0.684100
vn 0.217900 -0.822300 0.525600
vn -0.780100 -0.216300 -0.587200
vn -0.963800 0.042300 0.263400
vn 0.000000 0.049500 0.998800
vn 0.653300 0.036400 -0.756200
vn 0.653000 0.046300 -0.755900
vn -0.653000 0.046300 -0.755900
vn 0.964100 0.033200 0.263400
vn 0.000000 0.000000 1.000000
vn 0.000000 0.038900 0.999200
vn 0.000000 1.000000 0.000000
vn -0.653300 0.036400 -0.756200
vn -0.964100 0.033200 0.263400
vn 0.963800 0.042300 0.263400
vn 0.000000 -1.000000 -0.000000
vn 0.016100 0.249700 -0.968200
vn -0.488900 -0.862100 0.133600
vn 0.554500 0.818300 -0.151500
vn 0.398600 0.033400 0.916500
vn 0.053900 -0.190400 0.980200
vn 0.254100 0.040200 0.966300
vn 0.028200 0.999600 -0.007700
vn -0.053400 -0.998500 0.014600
vn -0.273100 0.031600 -0.961500
vn -0.379200 0.036100 -0.924600
vn 0.078900 -0.996700 -0.021600
vn -0.315000 0.945200 0.086100
vn 0.141800 0.044700 0.988900
vn 0.274200 0.039300 0.960900
vn 0.225800 0.972200 -0.061700
vn -0.221800 -0.973200 0.060600
vn -0.254500 0.030800 -0.966600
vn -0.013700 0.964600 0.263400
vn 0.014800 0.334000 -0.942400
vn -0.997300 0.065000 0.033500
vn 0.995000 0.099300 0.011300
vn -0.129300 0.398600 0.908000
vn -0.240000 0.686000 0.686800
vn 0.000000 0.997600 0.068700
vn -0.172100 0.551500 -0.816200
vn 0.000000 -0.990800 0.135000
vn 0.998600 0.025500 0.045400
vn -0.996400 0.078300 0.032100
vn -0.195300 0.236700 -0.951800
vn 0.000000 -0.606900 0.794800
vn 0.863200 0.407200 0.298400
vn -0.831900 -0.553300 0.040900
vn 0.024900 0.981900 0.187700
vn 0.197700 -0.140700 0.970100
vn 0.975500 0.044500 -0.215400
vn -0.983500 0.018500 0.180000
vn 0.518800 0.182300 0.835200
vn -0.506200 0.751600 -0.422900
vn 0.246400 -0.004900 0.969200
vn 0.491400 -0.659500 -0.568800
vn 0.550600 0.371200 0.747700
vn -0.742100 0.601400 0.296100
vn 0.919600 -0.283500 0.271800
vn 0.123600 -0.410200 -0.903600
vn 0.104600 0.869900 -0.482100
vn -0.816000 0.311200 0.487100
vn 0.845100 -0.278300 -0.456500
vn -0.547400 -0.343800 -0.763000
vn 0.599200 -0.004000 0.800600
vn 0.793600 0.144100 -0.591100
vn -0.320800 -0.871300 -0.371400
vn -0.771800 0.020300 0.635500
vn 0.143000 -0.729200 0.669200
vn 0.905400 0.352500 0.236700
vn -0.641700 0.067700 -0.763900
vn -0.586000 -0.667800 0.459000
vn -0.408300 0.524900 0.746800
vn 0.887200 0.374900 0.268800
vn -0.190900 0.790700 -0.581600
vn -0.907800 -0.376700 -0.184400
vn -0.283500 0.032000 -0.958400
vn -0.615000 -0.763100 -0.198400
vn 0.508100 0.832900 0.219200
vn 0.055600 -0.302500 0.951500
vn -0.013700 0.964600 0.263300
vn -0.442100 0.736700 0.511700
vn 0.219000 0.942200 0.253500
vn 0.000000 0.626700 -0.779300
vn 0.996400 0.078300 0.032100
vn -0.998600 0.025500 0.045400
vn 0.173100 -0.542600 0.821900
vn 0.817600 0.570900 -0.075400
vn -0.866900 -0.376600 -0.326600
vn -0.081200 0.492600 0.866500
vn -0.184800 0.047300 -0.981600
vn 0.536200 -0.712000 0.453400
vn 0.131200 -0.394600 -0.909400
vn -0.902700 0.351400 -0.248200
vn 0.773700 -0.574300 -0.267600
vn -0.510600 -0.147300 -0.847100
vn 0.104700 0.869900 -0.482100
vn -0.032500 -0.447100 0.893900
vn 0.737700 0.032500 -0.674400
vn 0.161800 -0.651500 -0.741200
vn -0.772700 0.018400 0.634500
vn 0.571500 0.727500 -0.379700
vn -0.027900 0.553400 -0.832500
vn -0.909300 -0.374500 -0.181300
s off
f 1/1/1 7/2/1 2/3/1
f 1/1/2 2/2/2 5/3/2
f 3/1/3 13/2/3 6/3/3
f 4/1/4 3/2/4 6/3/4
f 14/1/5 15/2/5 6/3/5
f 15/1/6 4/2/6 6/3/6
f 13/1/7 14/2/7 6/3/7
f 13/1/8 5/2/8 14/3/8
f 2/1/9 14/2/9 5/3/9
f 2/1/10 15/2/10 14/3/10
f 12/1/11 4/2/11 15/3/11
f 10/1/12 3/2/12 4/3/12
f 11/1/13 13/2/13 3/3/13
f 1/1/14 5/2/14 13/3/14
f 2/1/15 12/2/15 15/3/15
f 2/1/16 9/2/16 12/3/16
f 12/1/17 10/2/17 4/3/17
f 12/1/18 9/2/18 10/3/18
f 10/1/19 11/2/19 3/3/19
f 11/1/20 1/2/20 13/3/20
f 7/1/21 9/2/21 2/3/21
f 7/1/22 8/2/22 9/3/22
f 8/1/23 10/2/23 9/3/23
f 8/1/24 11/2/24 10/3/24
f 8/1/25 1/2/25 11/3/25
f 8/1/26 7/2/26 1/3/26
f 16/1/1 22/2/1 17/3/1
f 16/1/2 17/2/2 20/3/2
f 18/1/3 28/2/3 21/3/3
f 19/1/4 18/2/4 21/3/4
f 29/1/5 30/2/5 21/3/5
f 30/1/6 19/2/6 21/3/6
f 28/1/7 29/2/7 21/3/7
f 28/1/8 20/2/8 29/3/8
f 17/1/9 29/2/9 20/3/9
f 17/1/10 30/2/10 29/3/10
f 27/1/11 19/2/11 30/3/11
f 25/1/12 18/2/12 19/3/12
f 26/1/13 28/2/13 18/3/13
f 16/1/14 20/2/14 28/3/14
f 17/1/15 27/2/15 30/3/15
f 17/1/16 24/2/16 27/3/16
f 27/1/17 25/2/17 19/3/17
f 27/1/18 24/2/18 25/3/18
f 25/1/19 26/2/19 18/3/19
f 26/1/20 16/2/20 28/3/20
f 22/1/21 24/2/21 17/3/21
f 22/1/22 23/2/22 24/3/22
f 23/1/23 25/2/23 24/3/23
f 23/1/24 26/2/24 25/3/24
f 23/1/25 16/2/25 26/3/25
f 23/1/26 22/2/26 16/3/26
f 31/1/1 37/2/1 32/3/1
f 31/1/2 32/2/2 35/3/2
f 33/1/3 43/2/3 36/3/3
f 34/1/4 33/2/4 36/3/4
f 44/1/5 45/2/5 36/3/5
f 45/1/6 34/2/6 36/3/6
f 43/1/7 44/2/7 36/3/7
f 43/1/8 35/2/8 44/3/8
f 32/1/9 44/2/9 35/3/9
f 32/1/10 45/2/10 44/3/10
f 42/1/11 34/2/11 45/3/11
f 40/1/12 33/2/12 34/3/12
f 41/1/13 43/2/13 33/3/13
f 31/1/14 35/2/14 43/3/14
f 32/1/15 42/2/15 45/3/15
f 32/1/16 39/2/16 42/3/16
f 42/1/17 40/2/17 34/3/17
f 42/1/18 39/2/18 40/3/18
f 40/1/19 41/2/19 33/3/19
f 41/1/20 31/2/20 43/3/20
f 37/1/21 39/2/21 32/3/21
f 37/1/22 38/2/22 39/3/22
f 38/1/23 40/2/23 39/3/23
f 38/1/24 41/2/24 40/3/24
f 38/1/25 31/2/25 41/3/25
f 38/1/26 37/2/26 31/3/26
f 46/1/1 52/2/1 47/3/1
f 46/1/2 47/2/2 50/3/2
f 48/1/3 58/2/3 51/3/3
f 49/1/4 48/2/4 51/3/4
f 59/1/5 60/2/5 51/3/5
f 60/1/6 49/2/6 51/3/6
f 58/1/7 59/2/7 51/3/7
f 58/1/8 50/2/8 59/3/8
f 47/1/9 59/2/9 50/3/9
f 47/1/10 60/2/10 59/3/10
f 57/1/11 49/2/11 60/3/11
f 55/1/12 48/2/12 49/3/12
f 56/1/13 58/2/13 48/3/13
f 46/1/14 50/2/14 58/3/14
f 47/1/15 57/2/15 60/3/15
f 47/1/16 54/2/16 57/3/16
f 57/1/17 55/2/17 49/3/17
f 57/1/18 54/2/18 55/3/18
f 55/1/19 56/2/19 48/3/19
f 56/1/20 46/2/20 58/3/20
f 52/1/21 54/2/21 47/3/21
f 52/1/22 53/2/22 54/3/22
f 53/1/23 55/2/23 54/3/23
f 53/1/24 56/2/24 55/3/24
f 53/1/25 46/2/25 56/3/25
f 53/1/26 52/2/26 46/3/26
f 61/1/1 67/2/1 62/3/1
f 61/1/2 62/2/2 65/3/2
f 63/1/3 73/2/3 66/3/3
f 64/1/4 63/2/4 66/3/4
f 74/1/5 75/2/5 66/3/5
f 75/1/6 64/2/6 66/3/6
f 73/1/7 74/2/7 66/3/7
f 73/1/8 65/2/8 74/3/8
f 62/1/9 74/2/9 65/3/9
f 62/1/10 75/2/10 74/3/10
f 72/1/11 64/2/11 75/3/11
f 70/1/12 63/2/12 64/3/12
f 71/1/13 73/2/13 63/3/13
f 61/1/14 65/2/14 73/3/14
f 62/1/15 72/2/15 75/3/15
f 62/1/16 69/2/16 72/3/16
f 72/1/17 70/2/17 64/3/17
f 72/1/27 69/2/27 70/3/27
f 70/1/19 71/2/19 63/3/19
f 71/1/20 61/2/20 73/3/20
f 67/1/21 69/2/21 62/3/21
f 67/1/22 68/2/22 69/3/22
f 68/1/23 70/2/23 69/3/23
f 68/1/24 71/2/24 70/3/24
f 68/1/25 61/2/25 71/3/25
f 68/1/26 67/2/26 61/3/26
f 93/2/28 95/3/28 86/4/28
f 92/1/29 88/2/29 89/3/29
f 79/2/30 81/3/30 129/4/30
f 94/2/31 91/3/31 80/4/31
f 95/1/32 90/2/32 77/3/32
f 129/1/33 81/2/33 83/3/33
f 90/1/34 95/2/34 100/3/34
f 95/1/34 93/2/34 101/3/34
f 128/1/35 83/2/35 85/3/35
f 81/5/36 79/6/36 87/7/36
f 126/1/37 87/2/37 79/3/37
f 85/2/38 87/3/38 126/4/38
f 80/1/39 91/2/39 92/3/39
f 91/1/39 76/2/39 88/3/39
f 86/8/40 80/6/40 84/9/40
f 86/1/32 95/2/32 94/3/32
f 92/2/29 93/3/29 84/4/29
f 93/1/34 89/2/34 103/3/34
f 112/2/41 99/3/41 97/4/41
f 89/1/34 90/2/34 102/3/34
f 112/1/42 114/2/42 98/3/42
f 115/1/43 113/2/43 97/3/43
f 114/1/44 115/2/44 96/3/44
f 96/2/45 116/3/45 118/4/45
f 109/2/46 107/3/46 104/4/46
f 109/1/47 111/2/47 106/3/47
f 110/1/48 108/2/48 104/3/48
f 111/1/49 110/2/49 105/3/49
f 100/2/50 110/3/50 111/4/50
f 100/1/51 101/2/51 108/3/51
f 103/1/52 102/2/52 111/3/52
f 101/1/53 103/2/53 109/3/53
f 107/2/54 115/3/54 114/4/54
f 106/2/55 113/3/55 115/4/55
f 104/2/56 114/3/56 112/4/56
f 106/1/57 105/2/57 112/3/57
f 116/2/58 117/3/58 119/4/58
f 97/1/59 99/2/59 119/3/59
f 99/1/60 98/2/60 118/3/60
f 96/1/61 97/2/61 117/3/61
f 121/2/38 120/3/38 90/4/38
f 90/1/37 120/2/37 122/3/37
f 123/2/35 121/3/35 89/4/35
f 76/1/33 124/2/33 123/3/33
f 124/2/62 145/3/62 144/4/62
f 127/2/38 126/3/38 120/4/38
f 125/2/63 156/3/63 157/4/63
f 127/2/64 132/3/64 133/4/64
f 124/1/33 129/2/33 128/3/33
f 125/2/30 129/3/30 124/4/30
f 132/2/65 136/3/65 137/4/65
f 123/2/66 131/3/66 130/4/66
f 123/1/67 128/2/67 133/3/67
f 121/2/68 130/3/68 132/4/68
f 137/1/69 136/2/69 140/3/69
f 130/1/70 131/2/70 135/3/70
f 131/1/71 133/2/71 137/3/71
f 130/2/72 134/3/72 136/4/72
f 141/2/73 140/3/73 138/4/73
f 135/2/74 139/3/74 138/4/74
f 137/2/75 141/3/75 139/4/75
f 136/1/76 134/2/76 138/3/76
f 145/2/77 149/3/77 148/4/77
f 122/2/78 144/3/78 143/4/78
f 124/1/79 76/2/79 142/3/79
f 76/1/80 77/2/80 143/3/80
f 148/1/81 149/2/81 153/3/81
f 144/2/82 148/3/82 147/4/82
f 145/1/83 142/2/83 146/3/83
f 142/1/84 143/2/84 147/3/84
f 152/2/85 153/3/85 150/4/85
f 147/1/86 148/2/86 152/3/86
f 146/2/87 150/3/87 153/4/87
f 147/2/88 151/3/88 150/4/88
f 157/1/89 156/2/89 160/3/89
f 122/2/90 155/3/90 156/4/90
f 122/1/91 120/2/91 154/3/91
f 120/1/92 126/2/92 157/3/92
f 160/2/93 164/3/93 165/4/93
f 155/2/94 159/3/94 160/4/94
f 155/1/95 154/2/95 158/3/95
f 154/1/96 157/2/96 161/3/96
f 162/1/97 165/2/97 164/3/97
f 160/1/98 159/2/98 163/3/98
f 158/2/99 162/3/99 163/4/99
f 161/2/100 165/3/100 162/4/100
f 91/2/31 94/3/31 77/4/31
f 84/1/28 93/2/28 86/4/28
f 93/4/29 92/1/29 89/3/29
f 125/1/30 79/2/30 129/4/30
f 78/1/31 94/2/31 80/4/31
f 94/4/32 95/1/32 77/3/32
f 128/4/33 129/1/33 83/3/33
f 102/4/34 90/1/34 100/3/34
f 100/4/34 95/1/34 101/3/34
f 127/4/35 128/1/35 85/3/35
f 85/9/36 83/8/36 81/5/36
f 81/5/36 87/7/36 85/9/36
f 125/4/37 126/1/37 79/3/37
f 127/1/38 85/2/38 126/4/38
f 82/4/39 80/1/39 92/3/39
f 92/4/39 91/1/39 88/3/39
f 80/6/40 86/8/40 78/5/40
f 80/6/40 82/7/40 84/9/40
f 78/4/32 86/1/32 94/3/32
f 82/1/29 92/2/29 84/4/29
f 101/4/34 93/1/34 103/3/34
f 113/1/101 112/2/101 97/4/101
f 103/4/34 89/1/34 102/3/34
f 99/4/102 112/1/102 98/3/102
f 96/4/103 115/1/103 97/3/103
f 98/4/104 114/1/104 96/3/104
f 98/1/45 96/2/45 118/4/45
f 108/1/46 109/2/46 104/4/46
f 107/4/47 109/1/47 106/3/47
f 105/4/48 110/1/48 104/3/48
f 106/4/49 111/1/49 105/3/49
f 102/1/50 100/2/50 111/4/50
f 110/4/51 100/1/51 108/3/51
f 109/4/52 103/1/52 111/3/52
f 108/4/53 101/1/53 109/3/53
f 104/1/54 107/2/54 114/4/54
f 107/1/55 106/2/55 115/4/55
f 105/1/56 104/2/56 112/4/56
f 113/4/57 106/1/57 112/3/57
f 118/1/105 116/2/105 119/4/105
f 117/4/59 97/1/59 119/3/59
f 119/4/60 99/1/60 118/3/60
f 116/4/61 96/1/61 117/3/61
f 89/1/38 121/2/38 90/4/38
f 77/4/37 90/1/37 122/3/37
f 88/1/35 123/2/35 89/4/35
f 88/4/33 76/1/33 123/3/33
f 122/1/106 124/2/106 144/4/106
f 121/1/38 127/2/38 120/4/38
f 126/1/107 125/2/107 157/4/107
f 128/1/64 127/2/64 133/4/64
f 123/4/33 124/1/33 128/3/33
f 122/1/30 125/2/30 124/4/30
f 133/1/108 132/2/108 137/4/108
f 121/1/66 123/2/66 130/4/66
f 131/4/109 123/1/109 133/3/109
f 127/1/110 121/2/110 132/4/110
f 141/4/69 137/1/69 140/3/69
f 134/4/111 130/1/111 135/3/111
f 135/4/112 131/1/112 137/3/112
f 132/1/113 130/2/113 136/4/113
f 139/1/73 141/2/73 138/4/73
f 134/1/74 135/2/74 138/4/74
f 135/1/75 137/2/75 139/4/75
f 140/4/76 136/1/76 138/3/76
f 144/1/114 145/2/114 148/4/114
f 77/1/115 122/2/115 143/4/115
f 145/4/116 124/1/116 142/3/116
f 142/4/117 76/1/117 143/3/117
f 152/4/81 148/1/81 153/3/81
f 143/1/118 144/2/118 147/4/118
f 149/4/119 145/1/119 146/3/119
f 146/4/120 142/1/120 147/3/120
f 151/1/121 152/2/121 150/4/121
f 151/4/86 147/1/86 152/3/86
f 149/1/87 146/2/87 153/4/87
f 146/1/88 147/2/88 150/4/88
f 161/4/122 157/1/122 160/3/122
f 125/1/123 122/2/123 156/4/123
f 155/4/124 122/1/124 154/3/124
f 154/4/125 120/1/125 157/3/125
f 161/1/93 160/2/93 165/4/93
f 156/1/126 155/2/126 160/4/126
f 159/4/127 155/1/127 158/3/127
f 158/4/128 154/1/128 161/3/128
f 163/4/97 162/1/97 164/3/97
f 164/4/98 160/1/98 163/3/98
f 159/1/99 158/2/99 163/4/99
f 158/1/100 161/2/100 162/4/100
f 76/1/31 91/2/31 77/4/31
